<svg xmlns="http://www.w3.org/2000/svg" viewBox="0 0 408.75 34.92"><defs><style>.cls-1{opacity:0.26;}.cls-2{fill:none;stroke:#606060;stroke-miterlimit:10;stroke-width:3px;}.cls-3{fill:#09123d;}</style></defs><title>Recurso 7</title><g id="Capa_2" data-name="Capa 2"><g id="Capa_1-2" data-name="Capa 1"><g class="cls-1"><path class="cls-2" d="M24.59,28.12H11.23L8.45,32.78H2.71L22.29,1.5h.9l7.45,31.28h-5ZM23.68,24,21,11.77,13.68,24Z"/><path class="cls-2" d="M32.53,26.79l3.87-2.68a7.39,7.39,0,0,0,6.72,4.33c2.52,0,5.09-1.23,5.57-3.57.62-3.18-3.31-5.27-5.65-6.64-3-1.75-6.45-4.2-5.4-9.3.89-4.31,5.13-7.35,10.15-7.35,4.15,0,7.32,2.43,8.1,5.6L52,9.83a4.86,4.86,0,0,0-4.89-3.54,4.69,4.69,0,0,0-4.7,3.61c-.49,2.68,2.4,4,5.06,5.48,4.32,2.53,7,5.47,6.12,9.79-.93,4.68-5.11,8.12-11.12,8.12C37.26,33.29,33.91,30.51,32.53,26.79Z"/><path class="cls-2" d="M66.22,6.86,64.7,14.71H75.42l-.93,4.79H63.77L62.11,28H74.62l-.93,4.8H56.24L62.19,2.13H79.64l-.91,4.73Z"/><path class="cls-2" d="M78.13,26.79,82,24.11a7.4,7.4,0,0,0,6.72,4.33c2.53,0,5.09-1.23,5.57-3.57.62-3.18-3.31-5.27-5.65-6.64-3-1.75-6.44-4.2-5.4-9.3.89-4.31,5.13-7.35,10.15-7.35,4.15,0,7.32,2.43,8.1,5.6L97.58,9.83a4.86,4.86,0,0,0-4.89-3.54A4.69,4.69,0,0,0,88,9.9c-.49,2.68,2.4,4,5.06,5.48,4.32,2.53,7,5.47,6.12,9.79-.93,4.68-5.11,8.12-11.12,8.12C82.86,33.29,79.51,30.51,78.13,26.79Z"/><path class="cls-2" d="M103.34,17.53c1.37-9.38,9-16.24,17.47-15.84,8.12.36,13.05,7.15,11.7,16.08-1.41,9.4-9.07,16-17.48,15.63C107,33,102,26.41,103.34,17.53Zm24.24.15c1.07-6.26-2.37-11.08-7.66-11.2-5.44-.11-10.59,4.79-11.64,11.07-1,6.12,2.29,10.89,7.63,11S126.5,24,127.58,17.68Z"/><path class="cls-2" d="M150.08,20.53l6.41,12.25h-5.44l-5.82-11.87h-3.91L139,32.78h-5L140,2.13h8.84c5.18,0,9.93,3.61,8.92,9.9A10.35,10.35,0,0,1,150.08,20.53Zm-2-13.63h-4l-1.95,10h4c3.82,0,6.29-2.26,6.73-5C153.27,8.88,151,6.9,148.05,6.9Z"/><path class="cls-2" d="M165.71,2.13h4.95l-5.95,30.65h-5Z"/><path class="cls-2" d="M190,28.12H176.61l-2.78,4.66h-5.74L187.67,1.5h.9L196,32.78h-5ZM189.06,24l-2.72-12.22L179.06,24Z"/><path class="cls-2" d="M234.15,6.9h-7.68l-5,25.88h-4.94l5-25.88H213.8l.94-4.77h20.34Z"/><path class="cls-2" d="M235,20.78l3.63-18.65h4.94L240,20.76c-.85,4.43,1.29,7.72,5.06,7.72,3.48,0,6.4-2.63,7.39-7.72L256,2.13H261l-3.61,18.65c-1.6,8.21-6.89,12.57-13.12,12.57C237.4,33.35,233.66,27.78,235,20.78Z"/><path class="cls-2" d="M276.67,20.53l6.41,12.25h-5.44l-5.82-11.87h-3.91l-2.3,11.87h-4.95l5.93-30.65h8.84c5.18,0,9.93,3.61,8.92,9.9A10.35,10.35,0,0,1,276.67,20.53Zm-2-13.63h-4l-1.95,10h4c3.82,0,6.29-2.26,6.73-5C279.86,8.88,277.58,6.9,274.64,6.9Z"/><path class="cls-2" d="M292.3,2.13h4.95L291.3,32.78h-4.95Z"/><path class="cls-2" d="M296.6,26.79l3.88-2.68a7.38,7.38,0,0,0,6.71,4.33c2.53,0,5.1-1.23,5.57-3.57.63-3.18-3.31-5.27-5.64-6.64-3-1.75-6.45-4.2-5.4-9.3.89-4.31,5.13-7.35,10.15-7.35,4.14,0,7.32,2.43,8.1,5.6l-3.92,2.65a4.85,4.85,0,0,0-4.88-3.54,4.68,4.68,0,0,0-4.7,3.61c-.5,2.68,2.4,4,5.06,5.48,4.31,2.53,7,5.47,6.12,9.79-.93,4.68-5.12,8.12-11.12,8.12C301.34,33.29,298,30.51,296.6,26.79Z"/><path class="cls-2" d="M343.62,6.9h-7.68l-5,25.88H326L331,6.9h-7.72l.93-4.77h20.35Z"/><path class="cls-2" d="M348.4,2.13h4.94l-5.95,30.65h-4.94Z"/><path class="cls-2" d="M354.89,17.09c1.8-10.59,10.93-15.88,17.79-15.46a11.65,11.65,0,0,1,9.68,6.2L378.71,11c-2-3.21-4.34-4.56-7.23-4.56-5.34,0-10.45,4.47-11.63,10.63-1.24,6.35,2.24,11.33,7.94,11.33,3.1,0,5.73-1.5,8.24-3.69l2.09,4.17a16.52,16.52,0,0,1-11,4.35C358.42,33.27,353.29,26.39,354.89,17.09Z"/><path class="cls-2" d="M400.81,28.12H387.44l-2.78,4.66h-5.74L398.51,1.5h.89l7.45,31.28h-5ZM399.89,24l-2.72-12.22L389.89,24Z"/></g><path class="cls-3" d="M23.67,26.7H10.3L7.53,31.36H1.79L21.37.08h.89l7.46,31.28h-5Zm-.91-4.13L20,10.35,12.76,22.57Z"/><path class="cls-3" d="M31.6,25.37l3.88-2.68A7.38,7.38,0,0,0,42.19,27c2.53,0,5.1-1.23,5.57-3.57.63-3.18-3.3-5.27-5.64-6.64-3-1.75-6.45-4.2-5.4-9.3C37.61,3.2,41.85.16,46.87.16,51,.16,54.19,2.59,55,5.77L51.05,8.41a4.84,4.84,0,0,0-4.88-3.54,4.68,4.68,0,0,0-4.7,3.61c-.49,2.68,2.4,4,5.06,5.48,4.31,2.53,7,5.48,6.12,9.79-.93,4.68-5.11,8.12-11.12,8.12C36.34,31.87,33,29.09,31.6,25.37Z"/><path class="cls-3" d="M65.3,5.44l-1.52,7.85H74.5l-.93,4.8H62.85l-1.66,8.48H73.7l-.93,4.79H55.32l6-30.65H78.72l-.91,4.73Z"/><path class="cls-3" d="M77.2,25.37l3.88-2.68A7.38,7.38,0,0,0,87.79,27c2.53,0,5.1-1.23,5.57-3.57.63-3.18-3.3-5.27-5.64-6.64-3-1.75-6.45-4.2-5.4-9.3C83.21,3.2,87.45.16,92.47.16c4.15,0,7.32,2.43,8.1,5.61L96.65,8.41a4.84,4.84,0,0,0-4.88-3.54,4.69,4.69,0,0,0-4.7,3.61c-.49,2.68,2.4,4,5.06,5.48,4.31,2.53,7,5.48,6.12,9.79-.93,4.68-5.11,8.12-11.12,8.12C81.94,31.87,78.59,29.09,77.2,25.37Z"/><path class="cls-3" d="M102.42,16.11c1.37-9.37,9-16.24,17.47-15.84,8.12.36,13,7.15,11.69,16.09-1.4,9.39-9.06,16-17.47,15.62C106.07,31.6,101.11,25,102.42,16.11Zm24.24.15C127.72,10,124.28,5.18,119,5.06c-5.44-.11-10.59,4.79-11.64,11.07-1,6.12,2.28,10.89,7.63,11S125.58,22.53,126.66,16.26Z"/><path class="cls-3" d="M149.16,19.11l6.4,12.25h-5.43l-5.82-11.87h-3.92l-2.3,11.87h-4.94L139.08.71h8.84c5.17,0,9.93,3.61,8.92,9.9A10.36,10.36,0,0,1,149.16,19.11Zm-2-13.63h-4l-2,10h4c3.82,0,6.29-2.26,6.73-5C152.35,7.46,150.07,5.48,147.12,5.48Z"/><path class="cls-3" d="M164.79.71h4.94l-5.95,30.65h-4.94Z"/><path class="cls-3" d="M189.05,26.7H175.69l-2.78,4.66h-5.74L186.75.08h.9l7.45,31.28h-5Zm-.91-4.13-2.72-12.22-7.28,12.22Z"/><path class="cls-3" d="M233.23,5.48h-7.68l-5,25.88h-4.95l5-25.88h-7.72l.93-4.77h20.35Z"/><path class="cls-3" d="M234.09,19.36,237.72.71h4.94l-3.61,18.63c-.86,4.43,1.29,7.72,5.06,7.72,3.47,0,6.4-2.62,7.39-7.72L255.11.71h4.95l-3.62,18.65c-1.59,8.21-6.88,12.57-13.11,12.57C236.48,31.93,232.74,26.36,234.09,19.36Z"/><path class="cls-3" d="M275.75,19.11l6.4,12.25h-5.43L270.9,19.49H267l-2.3,11.87h-4.94L265.67.71h8.84c5.17,0,9.93,3.61,8.92,9.9A10.36,10.36,0,0,1,275.75,19.11Zm-2-13.63h-4l-2,10h4c3.82,0,6.29-2.26,6.73-5C278.94,7.46,276.66,5.48,273.71,5.48Z"/><path class="cls-3" d="M291.38.71h4.94l-5.95,30.65h-4.94Z"/><path class="cls-3" d="M295.68,25.37l3.88-2.68A7.38,7.38,0,0,0,306.27,27c2.53,0,5.09-1.23,5.57-3.57.63-3.18-3.31-5.27-5.65-6.64-3-1.75-6.44-4.2-5.4-9.3C301.69,3.2,305.93.16,311,.16c4.14,0,7.32,2.43,8.1,5.61l-3.92,2.64a4.85,4.85,0,0,0-4.89-3.54,4.67,4.67,0,0,0-4.69,3.61c-.5,2.68,2.39,4,5.05,5.48,4.32,2.53,7,5.48,6.13,9.79-.94,4.68-5.12,8.12-11.13,8.12C300.41,31.87,297.07,29.09,295.68,25.37Z"/><path class="cls-3" d="M342.7,5.48H335l-5,25.88H325l5-25.88h-7.72l.93-4.77h20.34Z"/><path class="cls-3" d="M347.48.71h4.94l-5.95,30.65h-4.94Z"/><path class="cls-3" d="M354,15.67C355.77,5.08,364.9-.2,371.76.21a11.65,11.65,0,0,1,9.68,6.2l-3.65,3.21c-2-3.21-4.34-4.56-7.23-4.56-5.34,0-10.45,4.47-11.63,10.63C357.69,22,361.17,27,366.87,27c3.1,0,5.73-1.5,8.24-3.69l2.09,4.17a16.47,16.47,0,0,1-11,4.35C357.5,31.85,352.37,25,354,15.67Z"/><path class="cls-3" d="M399.88,26.7H386.52l-2.78,4.66H378L397.58.08h.9l7.45,31.28h-5ZM399,22.57l-2.72-12.22L389,22.57Z"/></g></g></svg>