<svg xmlns="http://www.w3.org/2000/svg" viewBox="0 0 55.2 36.72"><defs><style>.cls-1{fill:#e2e3cf;}</style></defs><title>Recurso 6</title><g id="Capa_2" data-name="Capa 2"><g id="Capa_1-2" data-name="Capa 1"><path class="cls-1" d="M0,7.89c2.34,2.72,4.07,4.29,7.31,4.59l4.78.28c2.15.09,4.7.06,7.13.07s4.77-.14,6.48-.31l2.83-.25s1.11-.06,2.82-.31l3-.38,3.49-.6c2.42-.46,4.94-1,7.06-1.65,1.06-.27,2-.6,2.82-.85s1.45-.48,1.88-.65c3.12-1.19,4.53-3.27,5.63-6.76-1.76-.4-3.11-.86-4.38-1A8.48,8.48,0,0,0,47,.48,82.55,82.55,0,0,1,36.34,3.27l-3.21.57-2.74.36c-1.58.24-2.62.3-2.62.3l-2.63.22c-1.59.15-3.78.16-6.06.26s-4.68,0-6.71-.07L7.84,4.7C4.76,4.53,2.92,5.66,0,7.89Z"/><path class="cls-1" d="M0,19.83c2.34,2.72,4.07,4.29,7.31,4.59l4.78.28c2.15.09,4.7.07,7.13.07s4.77-.14,6.48-.31l2.83-.25s1.11-.06,2.82-.3l3-.39,3.49-.6c2.42-.46,4.94-1,7.06-1.64,1.06-.27,2-.61,2.82-.86s1.45-.48,1.88-.65C52.69,18.58,54.1,16.5,55.2,13c-1.76-.4-3.11-.86-4.38-1a8.48,8.48,0,0,0-3.87.41,82.55,82.55,0,0,1-10.61,2.79l-3.21.57-2.74.37c-1.58.23-2.62.29-2.62.29l-2.63.22c-1.59.15-3.78.16-6.06.27s-4.68,0-6.71-.08l-4.53-.21C4.76,16.47,2.92,17.6,0,19.83Z"/><path class="cls-1" d="M0,31.77c2.34,2.72,4.07,4.3,7.31,4.6l4.78.27c2.15.09,4.7.07,7.13.08s4.77-.15,6.48-.32l2.83-.25s1.11-.06,2.82-.3l3-.38,3.49-.61c2.42-.46,4.94-1,7.06-1.64,1.06-.27,2-.6,2.82-.86s1.45-.48,1.88-.65c3.12-1.19,4.53-3.27,5.63-6.76a43,43,0,0,0-4.38-1,8.33,8.33,0,0,0-3.87.4,80.88,80.88,0,0,1-10.61,2.79l-3.21.57-2.74.37c-1.58.23-2.62.3-2.62.3l-2.63.21c-1.59.15-3.78.16-6.06.27s-4.68,0-6.71-.08l-4.53-.21C4.76,28.42,2.92,29.54,0,31.77Z"/></g></g></svg>