<svg xmlns="http://www.w3.org/2000/svg" viewBox="0 0 800.85 445.22"><defs><style>.cls-1{fill:none;stroke:#e8e7de;stroke-miterlimit:10;}.cls-2{fill:#e8e7de;}</style></defs><title>Recurso 2</title><g id="Capa_2" data-name="Capa 2"><g id="Capa_1-2" data-name="Capa 1"><path class="cls-1" d="M400.73,45.49c-98.48,1.42-145.87,121.28-145.87,121.28s-19.27,38.08-28.1,94.25"/><path class="cls-1" d="M400.73,137.64c54.63.4,88.59-8,88.59-8l25.08,52h0s-43.74,10.87-113.63,9.74h.3c-69.89,1.13-113.63-9.74-113.63-9.74h0l25.09-52s33.95,8.44,88.58,8"/><polyline class="cls-1" points="244.62 191.46 20.96 64.84 20.96 1.06 0.5 17.91 0.5 153.25 231.57 338.04"/><path class="cls-1" d="M400.11,45.49C498.6,46.91,546,166.77,546,166.77s19.27,38.08,28.1,94.25"/><polyline class="cls-1" points="556.23 191.46 779.89 64.84 779.89 1.06 800.35 17.91 800.35 153.25 569.27 338.04"/><path class="cls-1" d="M348.31,245.37s52.74-15.64,99.9,0"/><path class="cls-2" d="M296.06,439l3.64-2.52a6.94,6.94,0,0,0,6.29,4.07c2.37,0,4.78-1.16,5.22-3.35.59-3-3.1-4.94-5.29-6.22-2.8-1.64-6-3.94-5.06-8.72.84-4,4.81-6.9,9.52-6.9,3.88,0,6.86,2.29,7.59,5.26l-3.67,2.48a4.56,4.56,0,0,0-4.58-3.32,4.41,4.41,0,0,0-4.41,3.39c-.46,2.51,2.25,3.71,4.74,5.13,4.05,2.37,6.58,5.14,5.74,9.18-.87,4.39-4.79,7.61-10.42,7.61C300.5,445.1,297.37,442.5,296.06,439Z"/><path class="cls-2" d="M319.7,430.33c1.28-8.79,8.39-15.22,16.38-14.85,7.61.34,12.23,6.7,11,15.08-1.32,8.8-8.5,15-16.38,14.65C323.12,444.85,318.47,438.65,319.7,430.33Zm22.72.14c1-5.86-2.22-10.39-7.18-10.5s-9.93,4.49-10.91,10.38c-1,5.73,2.14,10.21,7.15,10.33S341.41,436.35,342.42,430.47Z"/><path class="cls-2" d="M366.13,440.13l-.89,4.49H348.49l5.58-28.73h4.65L354,440.13Z"/><path class="cls-2" d="M370.77,433.37l3.4-17.48h4.64l-3.39,17.47c-.8,4.15,1.21,7.23,4.74,7.23,3.26,0,6-2.46,6.94-7.23l3.38-17.47h4.64l-3.39,17.48c-1.5,7.7-6.45,11.79-12.3,11.79C373,445.16,369.5,439.93,370.77,433.37Z"/><path class="cls-2" d="M416.65,420.36h-7.2l-4.72,24.26h-4.64l4.73-24.26h-7.24l.87-4.47h19.07Z"/><path class="cls-2" d="M421.13,415.89h4.63l-5.58,28.73h-4.63Z"/><path class="cls-2" d="M427.14,430.33c1.28-8.79,8.39-15.22,16.37-14.85,7.61.34,12.23,6.7,11,15.08-1.31,8.8-8.5,15-16.37,14.65C430.56,444.85,425.91,438.65,427.14,430.33Zm22.72.14c1-5.86-2.23-10.39-7.18-10.5-5.1-.1-9.93,4.49-10.91,10.38-1,5.73,2.14,10.21,7.15,10.33S448.84,436.35,449.86,430.47Z"/><path class="cls-2" d="M483.62,415.82l-5.69,29.3h-.41l-13.36-19.18-3.64,18.72h-4.61l5.7-29.27H462l13.33,19.14L479,415.82Z"/><path class="cls-2" d="M483,439l3.64-2.52a6.92,6.92,0,0,0,6.29,4.07c2.37,0,4.77-1.16,5.22-3.35.59-3-3.1-4.94-5.29-6.22-2.8-1.64-6.05-3.94-5.07-8.72.84-4,4.82-6.9,9.52-6.9,3.89,0,6.86,2.29,7.59,5.26l-3.67,2.48a4.55,4.55,0,0,0-4.58-3.32,4.4,4.4,0,0,0-4.4,3.39c-.46,2.51,2.25,3.71,4.74,5.13,4.05,2.37,6.58,5.14,5.74,9.18-.87,4.39-4.79,7.61-10.43,7.61C487.44,445.1,484.3,442.5,483,439Z"/><path class="cls-2" d="M247.68,287.46h65.63q17.22,0,27.15,7T350.4,315a24.24,24.24,0,0,1-2.52,11.48,26.19,26.19,0,0,1-6.16,7.84,29.71,29.71,0,0,1-7.63,4.75,35,35,0,0,1-6.92,2.24v1.4a57,57,0,0,1,7.55,1.33,25.77,25.77,0,0,1,8.54,3.78,23.2,23.2,0,0,1,6.93,7.56q2.87,4.83,2.87,12.66a24.17,24.17,0,0,1-11.9,22,38.73,38.73,0,0,1-12.66,4.83,75.93,75.93,0,0,1-15.19,1.47H247.68V373.38h8.4v-63h-8.4Zm55.14,45.9q4.05,0,6.08-2.1c1.36-1.4,2-3.69,2-6.86v-5c0-3.17-.67-5.46-2-6.86s-3.38-2.09-6.08-2.09h-7.56v22.95Zm1,40q4.05,0,6.08-2.1c1.36-1.4,2-3.68,2-6.86v-6.16c0-3.16-.67-5.45-2-6.85s-3.38-2.1-6.08-2.1h-8.54v24.07Z"/><path class="cls-2" d="M399.1,371.28q4.62,0,6.57-1.4a4.81,4.81,0,0,0,2-4.2,4.54,4.54,0,0,0-1.61-3.43q-1.61-1.47-6.5-3.42-10.36-3.93-18.13-7.49a55.92,55.92,0,0,1-12.87-7.91,27.59,27.59,0,0,1-7.63-10.14,35.25,35.25,0,0,1-2.52-14.07,38.22,38.22,0,0,1,2.45-14.06,25.28,25.28,0,0,1,8-10.64q5.52-4.41,14.69-6.72a94.66,94.66,0,0,1,22.6-2.3,103.47,103.47,0,0,1,23,2.44A66.32,66.32,0,0,1,447,294.45V319.5H417.57c0-2.7-.75-4.55-2.24-5.53a9.72,9.72,0,0,0-5.46-1.47c-3.08,0-5.29.4-6.65,1.19a4.39,4.39,0,0,0-2,4.13,3.68,3.68,0,0,0,2.17,3.5,44.48,44.48,0,0,0,6.5,2.52q8.11,2.66,15.33,5.6a51.55,51.55,0,0,1,12.66,7.27,31.86,31.86,0,0,1,8.61,10.5q3.15,6.17,3.15,15.11,0,18.19-11.76,27.08t-34.43,8.89a133.93,133.93,0,0,1-24.77-2.24,92.58,92.58,0,0,1-19-5.32V363h30.79q0,4.2,1.68,6.23T399.1,371.28Z"/><path class="cls-2" d="M516.23,396.33h-61V373.38h8.4v-63h-8.4v-23H518a63.6,63.6,0,0,1,15.47,1.74,29.45,29.45,0,0,1,11.68,5.67,25.56,25.56,0,0,1,7.35,10.22,46.4,46.4,0,0,1,0,30.57,25.6,25.6,0,0,1-7.35,10.15,29.45,29.45,0,0,1-11.68,5.67A63.09,63.09,0,0,1,518,353.23H502.79v20.15h13.44Zm-8.68-63a8.15,8.15,0,0,0,6-2.1q2.1-2.1,2.1-6.86v-5q0-4.75-2-6.86c-1.36-1.4-3.39-2.09-6.09-2.09h-4.76v22.95Z"/></g></g></svg>