<svg xmlns="http://www.w3.org/2000/svg" viewBox="0 0 345.92 197.49"><defs><style>.cls-1{opacity:0.26;}.cls-2,.cls-5{fill:none;stroke-miterlimit:10;stroke-width:3px;}.cls-2{stroke:#606060;}.cls-3{opacity:0.5;}.cls-4{fill:#606060;}.cls-5{stroke:#09123d;}.cls-6{fill:#09123d;}</style></defs><title>Recurso 4</title><g id="Capa_2" data-name="Capa 2"><g id="Capa_1-2" data-name="Capa 1"><g class="cls-1"><path class="cls-2" d="M173.19,25.21c-42.2.61-62.5,52-62.5,52s-8.26,16.32-12,40.38"/><path class="cls-2" d="M173.19,64.7c23.41.17,38-3.44,38-3.44L221.9,83.55h0s-18.74,4.66-48.69,4.17h.13c-29.94.49-48.69-4.17-48.69-4.17h0l10.75-22.29s14.55,3.61,38,3.44"/><polyline class="cls-2" points="106.3 87.76 10.47 33.51 10.47 6.18 1.7 13.4 1.7 71.39 100.71 150.57"/><path class="cls-2" d="M172.92,25.21c42.21.61,62.51,52,62.51,52s8.26,16.32,12,40.38"/><polyline class="cls-2" points="239.82 87.76 335.65 33.51 335.65 6.18 344.42 13.4 344.42 71.39 245.41 150.57"/><path class="cls-2" d="M150.73,110.86s22.6-6.7,42.8,0"/></g><g class="cls-3"><path class="cls-4" d="M129.34,194.83l1.56-1.08a3,3,0,0,0,2.7,1.74,2.12,2.12,0,0,0,2.23-1.43c.26-1.28-1.33-2.12-2.26-2.67-1.2-.7-2.59-1.69-2.17-3.73a4,4,0,0,1,4.07-3,3.21,3.21,0,0,1,3.26,2.26L137.15,188a1.94,1.94,0,0,0-2-1.42,1.86,1.86,0,0,0-1.88,1.45c-.2,1.07,1,1.59,2,2.2,1.73,1,2.82,2.2,2.46,3.93a4.25,4.25,0,0,1-4.47,3.26A4,4,0,0,1,129.34,194.83Z"/><path class="cls-4" d="M139.47,191.11c.55-3.77,3.6-6.52,7-6.36,3.26.14,5.24,2.87,4.69,6.46a7,7,0,0,1-7,6.28C140.94,197.33,138.94,194.68,139.47,191.11Zm9.74.06c.42-2.51-1-4.45-3.08-4.5s-4.25,1.93-4.67,4.45.91,4.37,3.06,4.43S148.77,193.69,149.21,191.17Z"/><path class="cls-4" d="M159.37,195.31l-.39,1.92h-7.17l2.39-12.31h2l-2,10.39Z"/><path class="cls-4" d="M161.35,192.41l1.46-7.49h2l-1.45,7.49c-.35,1.78.51,3.1,2,3.1s2.57-1.06,3-3.1l1.45-7.49h2l-1.45,7.49c-.64,3.3-2.76,5.05-5.27,5.05C162.31,197.46,160.81,195.22,161.35,192.41Z"/><path class="cls-4" d="M181,186.84h-3.08l-2,10.39h-2l2-10.39h-3.1l.37-1.92h8.17Z"/><path class="cls-4" d="M182.93,184.92h2l-2.39,12.31h-2Z"/><path class="cls-4" d="M185.5,191.11c.55-3.77,3.6-6.52,7-6.36,3.26.14,5.24,2.87,4.7,6.46a7.06,7.06,0,0,1-7,6.28C187,197.33,185,194.68,185.5,191.11Zm9.74.06c.43-2.51-1-4.45-3.08-4.5s-4.25,1.93-4.67,4.45.91,4.37,3.06,4.43S194.8,193.69,195.24,191.17Z"/><path class="cls-4" d="M209.71,184.89l-2.44,12.56h-.18l-5.72-8.22-1.56,8h-2l2.44-12.54h.18l5.71,8.2,1.57-8Z"/><path class="cls-4" d="M209.44,194.83l1.56-1.08a3,3,0,0,0,2.69,1.74,2.13,2.13,0,0,0,2.24-1.43c.25-1.28-1.33-2.12-2.27-2.67-1.2-.7-2.59-1.69-2.17-3.73a4,4,0,0,1,4.08-3,3.21,3.21,0,0,1,3.26,2.26L217.25,188a1.94,1.94,0,0,0-2-1.42,1.88,1.88,0,0,0-1.89,1.45c-.2,1.07,1,1.59,2,2.2,1.74,1,2.82,2.2,2.46,3.93a4.23,4.23,0,0,1-4.46,3.26A4,4,0,0,1,209.44,194.83Z"/></g><g class="cls-3"><path class="cls-4" d="M107.61,127.89h28.12q7.38,0,11.64,3a10.11,10.11,0,0,1,4.25,8.81,10.39,10.39,0,0,1-1.08,4.92,11.33,11.33,0,0,1-2.63,3.36,12.69,12.69,0,0,1-3.27,2,15.21,15.21,0,0,1-3,1v.6a24.27,24.27,0,0,1,3.24.57,11,11,0,0,1,3.65,1.62,9.79,9.79,0,0,1,3,3.23,10.55,10.55,0,0,1,1.23,5.43,10.36,10.36,0,0,1-5.09,9.41,16.6,16.6,0,0,1-5.43,2.07,32.53,32.53,0,0,1-6.51.63H107.61v-9.83h3.6v-27h-3.6Zm23.63,19.67a3.46,3.46,0,0,0,2.6-.9,4.13,4.13,0,0,0,.87-2.94v-2.16a4.13,4.13,0,0,0-.87-2.94,3.5,3.5,0,0,0-2.6-.89H128v9.83Zm.42,17.15a3.46,3.46,0,0,0,2.6-.9,4.13,4.13,0,0,0,.87-2.94v-2.64a4.13,4.13,0,0,0-.87-2.94,3.46,3.46,0,0,0-2.6-.9H128v10.32Z"/><path class="cls-4" d="M172.49,163.81a5,5,0,0,0,2.82-.6,2.07,2.07,0,0,0,.84-1.8,1.93,1.93,0,0,0-.69-1.47,10.13,10.13,0,0,0-2.79-1.47q-4.44-1.68-7.77-3.21a24,24,0,0,1-5.51-3.38,11.85,11.85,0,0,1-3.27-4.35,15.12,15.12,0,0,1-1.08-6,16.35,16.35,0,0,1,1.05-6,10.85,10.85,0,0,1,3.42-4.56A16.4,16.4,0,0,1,165.8,128a40.35,40.35,0,0,1,9.69-1,44.29,44.29,0,0,1,9.83,1,28.25,28.25,0,0,1,7.68,2.79v10.73H180.4a2.63,2.63,0,0,0-1-2.37,4.14,4.14,0,0,0-2.33-.63,6,6,0,0,0-2.85.51,1.88,1.88,0,0,0-.87,1.77,1.58,1.58,0,0,0,.93,1.5,19.56,19.56,0,0,0,2.79,1.08q3.46,1.14,6.56,2.4A22,22,0,0,1,189.1,149a13.6,13.6,0,0,1,3.69,4.5,14.07,14.07,0,0,1,1.35,6.47q0,7.8-5,11.6t-14.75,3.81a57.31,57.31,0,0,1-10.62-1,39.77,39.77,0,0,1-8.15-2.28V160.27h13.19a4.13,4.13,0,0,0,.72,2.67Q170.21,163.81,172.49,163.81Z"/><path class="cls-4" d="M222.68,174.54H196.53v-9.83h3.6v-27h-3.6v-9.84h26.93a27.08,27.08,0,0,1,6.62.75,12.61,12.61,0,0,1,5,2.43,10.94,10.94,0,0,1,3.15,4.38,19.88,19.88,0,0,1,0,13.1,11,11,0,0,1-3.15,4.35,12.6,12.6,0,0,1-5,2.42,27.08,27.08,0,0,1-6.62.75h-6.54v8.64h5.76Zm-3.72-27a3.49,3.49,0,0,0,2.58-.9,4,4,0,0,0,.9-2.94v-2.16a4.13,4.13,0,0,0-.87-2.94,3.51,3.51,0,0,0-2.61-.89h-2v9.83Z"/></g><path class="cls-5" d="M173,22.21c-42.2.61-62.5,52-62.5,52s-8.26,16.32-12,40.38"/><path class="cls-5" d="M173,61.7c23.41.17,38-3.44,38-3.44L221.7,80.55h0S202.94,85.21,173,84.72h.13c-29.94.49-48.69-4.17-48.69-4.17h0l10.75-22.29s14.55,3.61,38,3.44"/><polyline class="cls-5" points="106.1 84.76 10.27 30.51 10.27 3.18 1.5 10.4 1.5 68.39 100.51 147.57"/><path class="cls-5" d="M172.72,22.21c42.2.61,62.51,52,62.51,52s8.26,16.32,12,40.38"/><polyline class="cls-5" points="239.62 84.76 335.45 30.51 335.45 3.18 344.21 10.4 344.21 68.39 245.21 147.57"/><path class="cls-5" d="M150.53,107.86s22.6-6.7,42.8,0"/><path class="cls-6" d="M128.14,193.83l1.56-1.08a3,3,0,0,0,2.7,1.74,2.12,2.12,0,0,0,2.23-1.43c.26-1.28-1.33-2.12-2.26-2.67-1.2-.7-2.59-1.69-2.17-3.73a4,4,0,0,1,4.07-3,3.21,3.21,0,0,1,3.26,2.26L136,187a1.94,1.94,0,0,0-2-1.42,1.86,1.86,0,0,0-1.88,1.45c-.2,1.07,1,1.59,2,2.2,1.73,1,2.81,2.2,2.46,3.93a4.25,4.25,0,0,1-4.47,3.26A4,4,0,0,1,128.14,193.83Z"/><path class="cls-6" d="M138.27,190.11c.55-3.77,3.6-6.52,7-6.36,3.26.14,5.24,2.87,4.69,6.46a7,7,0,0,1-7,6.28C139.74,196.33,137.74,193.68,138.27,190.11Zm9.74.06c.42-2.51-1-4.45-3.08-4.5s-4.26,1.93-4.67,4.45.91,4.37,3.06,4.43S147.57,192.69,148,190.17Z"/><path class="cls-6" d="M158.16,194.31l-.38,1.92H150.6L153,183.92h2l-2,10.39Z"/><path class="cls-6" d="M160.15,191.41l1.46-7.49h2l-1.46,7.49c-.34,1.78.52,3.1,2,3.1s2.57-1.06,3-3.1l1.45-7.49h2l-1.45,7.49c-.64,3.3-2.76,5.05-5.27,5.05C161.11,196.46,159.61,194.22,160.15,191.41Z"/><path class="cls-6" d="M179.81,185.84h-3.09l-2,10.39h-2l2-10.39h-3.1l.37-1.92h8.17Z"/><path class="cls-6" d="M181.73,183.92h2l-2.39,12.31h-2Z"/><path class="cls-6" d="M184.3,190.11c.55-3.77,3.6-6.52,7-6.36,3.26.14,5.24,2.87,4.7,6.46a7.06,7.06,0,0,1-7,6.28C185.77,196.33,183.78,193.68,184.3,190.11Zm9.74.06c.43-2.51-1-4.45-3.08-4.5s-4.25,1.93-4.67,4.45.91,4.37,3.06,4.43S193.6,192.69,194,190.17Z"/><path class="cls-6" d="M208.5,183.89l-2.43,12.56h-.18l-5.72-8.22-1.56,8h-2l2.44-12.54h.18l5.71,8.2,1.57-8Z"/><path class="cls-6" d="M208.24,193.83l1.56-1.08a3,3,0,0,0,2.69,1.74,2.13,2.13,0,0,0,2.24-1.43c.25-1.28-1.33-2.12-2.27-2.67-1.2-.7-2.59-1.69-2.17-3.73a4,4,0,0,1,4.08-3,3.19,3.19,0,0,1,3.25,2.26L216.05,187a1.94,1.94,0,0,0-2-1.42,1.88,1.88,0,0,0-1.89,1.45c-.2,1.07,1,1.59,2,2.2,1.74,1,2.82,2.2,2.46,3.93a4.23,4.23,0,0,1-4.46,3.26A4,4,0,0,1,208.24,193.83Z"/><path class="cls-6" d="M107.41,125.89h28.12q7.38,0,11.64,3a10.11,10.11,0,0,1,4.25,8.81,10.39,10.39,0,0,1-1.08,4.92A11.19,11.19,0,0,1,147.7,146a12.64,12.64,0,0,1-3.26,2,15.21,15.21,0,0,1-3,1v.6a24.27,24.27,0,0,1,3.24.57,11,11,0,0,1,3.65,1.62,9.79,9.79,0,0,1,3,3.23,10.55,10.55,0,0,1,1.23,5.43,10.34,10.34,0,0,1-5.1,9.41,16.45,16.45,0,0,1-5.42,2.07,32.53,32.53,0,0,1-6.51.63H107.41v-9.83H111v-27h-3.6ZM131,145.56a3.46,3.46,0,0,0,2.6-.9,4.13,4.13,0,0,0,.87-2.94v-2.16a4.13,4.13,0,0,0-.87-2.94,3.5,3.5,0,0,0-2.6-.89H127.8v9.83Zm.42,17.15a3.46,3.46,0,0,0,2.6-.9,4.13,4.13,0,0,0,.87-2.94v-2.64a4.13,4.13,0,0,0-.87-2.94,3.46,3.46,0,0,0-2.6-.9H127.8v10.32Z"/><path class="cls-6" d="M172.29,161.81a5,5,0,0,0,2.82-.6,2.07,2.07,0,0,0,.84-1.8,1.93,1.93,0,0,0-.69-1.47,10.13,10.13,0,0,0-2.79-1.47q-4.44-1.68-7.77-3.21a24,24,0,0,1-5.51-3.38,11.85,11.85,0,0,1-3.27-4.35,15.12,15.12,0,0,1-1.08-6,16.35,16.35,0,0,1,1-6,10.85,10.85,0,0,1,3.42-4.56A16.4,16.4,0,0,1,165.6,126a40.35,40.35,0,0,1,9.69-1,44.29,44.29,0,0,1,9.83,1,28.25,28.25,0,0,1,7.68,2.79v10.73H180.2a2.63,2.63,0,0,0-1-2.37,4.14,4.14,0,0,0-2.33-.63,6,6,0,0,0-2.85.51,1.88,1.88,0,0,0-.87,1.77,1.58,1.58,0,0,0,.93,1.5,19.56,19.56,0,0,0,2.79,1.08q3.47,1.14,6.56,2.4A22,22,0,0,1,188.9,147a13.6,13.6,0,0,1,3.69,4.5,14.21,14.21,0,0,1,1.34,6.47q0,7.8-5,11.6t-14.75,3.81a57.31,57.31,0,0,1-10.62-1,39.77,39.77,0,0,1-8.15-2.28V158.27h13.19a4.13,4.13,0,0,0,.72,2.67Q170,161.81,172.29,161.81Z"/><path class="cls-6" d="M222.48,172.54H196.33v-9.83h3.6v-27h-3.6v-9.84h26.93a27.08,27.08,0,0,1,6.62.75,12.61,12.61,0,0,1,5,2.43,10.94,10.94,0,0,1,3.15,4.38,19.88,19.88,0,0,1,0,13.1,11,11,0,0,1-3.15,4.35,12.6,12.6,0,0,1-5,2.42,27.08,27.08,0,0,1-6.62.75h-6.54v8.64h5.76Zm-3.72-27a3.49,3.49,0,0,0,2.58-.9,4,4,0,0,0,.9-2.94v-2.16a4.13,4.13,0,0,0-.87-2.94,3.51,3.51,0,0,0-2.61-.89h-2v9.83Z"/></g></g></svg>