<svg xmlns="http://www.w3.org/2000/svg" viewBox="0 0 242.14 48.44"><defs><style>.cls-1{fill:#e2e3cf;}</style></defs><title>Recurso 3</title><g id="Capa_2" data-name="Capa 2"><g id="Capa_1-2" data-name="Capa 1"><path class="cls-1" d="M1.33,28.89h2.3V8.19H1.33V.64H22.45c3.83,0,6.82.79,9,2.35a7.82,7.82,0,0,1,3.22,6.72,7.82,7.82,0,0,1-1.29,4.57,8.89,8.89,0,0,1-3,2.81A11.69,11.69,0,0,1,27,18.35v.46a12.81,12.81,0,0,1,5.89,2.07c1.75,1.17,2.62,3.25,2.62,6.26q0,4.83-3.63,7.06a17.81,17.81,0,0,1-9.43,2.23H1.33ZM19,15.73A2.6,2.6,0,0,0,21,15a3.21,3.21,0,0,0,.67-2.23V11.13A3.21,3.21,0,0,0,21,8.9a2.64,2.64,0,0,0-2-.71H16.51v7.54Zm.32,13.16a2.59,2.59,0,0,0,2-.72A3.18,3.18,0,0,0,22,25.94v-2a3.21,3.21,0,0,0-.67-2.23,2.58,2.58,0,0,0-2-.71H16.51v7.91Z"/><path class="cls-1" d="M42.89,36.32a27.83,27.83,0,0,1-6-1.73V25.48H47a2.82,2.82,0,0,0,.65,2.07A3.29,3.29,0,0,0,50,28.2a3.67,3.67,0,0,0,2-.44,1.48,1.48,0,0,0,.62-1.31,1.65,1.65,0,0,0-.6-1.27A6.83,6.83,0,0,0,50,24.1l-4-1.38c-3.41-1.28-5.85-2.8-7.34-4.55a10.56,10.56,0,0,1-2.23-7.08c0-3.62,1.19-6.38,3.57-8.26S46.34,0,51.89,0a34.14,34.14,0,0,1,7.52.8,19,19,0,0,1,5.68,2.14v8.24h-9.2c0-1.54-1-2.3-2.85-2.3a4.06,4.06,0,0,0-2,.34,1.31,1.31,0,0,0-.57,1.22,1.43,1.43,0,0,0,.66,1.24,9.37,9.37,0,0,0,2.19,1l4,1.38a15.71,15.71,0,0,1,7.11,4.3,10.35,10.35,0,0,1,2.23,6.92q0,5.85-3.93,8.84t-11.53,3A44.62,44.62,0,0,1,42.89,36.32Z"/><path class="cls-1" d="M68,28.89h2.3V8.19H68V.64H88.18c4,0,7,.86,9.06,2.56s3.13,4.45,3.13,8.25-1,6.56-3.13,8.26-5.1,2.55-9.06,2.55h-5v6.63h4.41v7.54H68ZM84.73,15.73q2.67,0,2.67-2.94V11.13a3.16,3.16,0,0,0-.67-2.23,2.62,2.62,0,0,0-2-.71H83.17v7.54Z"/><path class="cls-1" d="M99.12,32.59l2.49-1.72a4.75,4.75,0,0,0,4.31,2.78c1.62,0,3.27-.79,3.58-2.3.4-2-2.13-3.38-3.63-4.26-1.92-1.12-4.14-2.69-3.47-6,.58-2.77,3.3-4.72,6.52-4.72a5.11,5.11,0,0,1,5.2,3.6l-2.51,1.7a3.12,3.12,0,0,0-3.14-2.27,3,3,0,0,0-3,2.32c-.31,1.72,1.54,2.54,3.25,3.51,2.77,1.63,4.51,3.52,3.93,6.29-.6,3-3.28,5.21-7.14,5.21A6.39,6.39,0,0,1,99.12,32.59Z"/><path class="cls-1" d="M115.31,26.64c.87-6,5.74-10.42,11.21-10.17,5.22.24,8.38,4.59,7.51,10.33-.9,6-5.82,10.29-11.22,10C117.65,36.59,114.46,32.34,115.31,26.64Zm15.56.1c.68-4-1.53-7.12-4.92-7.19s-6.8,3.08-7.47,7.1,1.46,7,4.9,7.08S130.17,30.77,130.87,26.74Z"/><path class="cls-1" d="M147.11,33.36l-.62,3.07H135l3.82-19.68H142l-3.24,16.61Z"/><path class="cls-1" d="M150.28,28.73l2.33-12h3.17l-2.32,12c-.54,2.84.83,5,3.25,5,2.24,0,4.12-1.68,4.75-5l2.32-12H167l-2.32,12c-1,5.27-4.42,8.07-8.42,8.07C151.82,36.8,149.41,33.22,150.28,28.73Z"/><path class="cls-1" d="M181.7,19.82h-4.93l-3.24,16.61h-3.17l3.23-16.61h-5l.6-3.07H182.3Z"/><path class="cls-1" d="M184.76,16.75h3.18l-3.82,19.68h-3.18Z"/><path class="cls-1" d="M188.88,26.64c.88-6,5.75-10.42,11.22-10.17,5.21.24,8.37,4.59,7.5,10.33-.9,6-5.82,10.29-11.22,10C191.22,36.59,188,32.34,188.88,26.64Zm15.56.1c.69-4-1.52-7.12-4.92-7.19s-6.8,3.08-7.47,7.1,1.47,7,4.9,7.08S203.75,30.77,204.44,26.74Z"/><path class="cls-1" d="M227.56,16.71l-3.89,20.06h-.28l-9.16-13.13-2.49,12.82h-3.16l3.91-20h.28l9.13,13.11,2.5-12.81Z"/><path class="cls-1" d="M227.13,32.59l2.5-1.72a4.74,4.74,0,0,0,4.3,2.78c1.63,0,3.28-.79,3.58-2.3.4-2-2.12-3.38-3.63-4.26-1.91-1.12-4.13-2.69-3.46-6,.57-2.77,3.29-4.72,6.52-4.72a5.11,5.11,0,0,1,5.2,3.6l-2.52,1.7a3.11,3.11,0,0,0-3.14-2.27,3,3,0,0,0-3,2.32c-.32,1.72,1.54,2.54,3.25,3.51,2.77,1.63,4.5,3.52,3.93,6.29-.6,3-3.29,5.21-7.14,5.21A6.41,6.41,0,0,1,227.13,32.59Z"/><path class="cls-1" d="M5.06,47.22H2l-.64,1.07H0l4.53-7.23h.2l1.73,7.23H5.29Zm-.21-1-.63-2.82L2.54,46.26Z"/><path class="cls-1" d="M6.89,46.91l.9-.62a1.7,1.7,0,0,0,1.55,1,1.23,1.23,0,0,0,1.29-.82c.14-.74-.77-1.22-1.31-1.54a1.94,1.94,0,0,1-1.25-2.15,2.31,2.31,0,0,1,2.35-1.7,1.83,1.83,0,0,1,1.87,1.3l-.9.61a1.13,1.13,0,0,0-1.13-.82A1.09,1.09,0,0,0,9.17,43c-.11.62.55.91,1.17,1.26,1,.59,1.62,1.27,1.41,2.27a2.43,2.43,0,0,1-2.57,1.87A2.3,2.3,0,0,1,6.89,46.91Z"/><path class="cls-1" d="M14.68,42.3l-.35,1.82H16.8l-.21,1.11H14.11l-.38,2h2.89l-.22,1.1h-4l1.38-7.08h4l-.21,1.09Z"/><path class="cls-1" d="M17.43,46.91l.89-.62a1.73,1.73,0,0,0,1.56,1,1.22,1.22,0,0,0,1.28-.82c.15-.74-.76-1.22-1.3-1.54a1.94,1.94,0,0,1-1.25-2.15A2.31,2.31,0,0,1,21,41.08a1.83,1.83,0,0,1,1.87,1.3l-.91.61a1.12,1.12,0,0,0-1.13-.82,1.08,1.08,0,0,0-1.08.84c-.12.62.55.91,1.17,1.26,1,.59,1.62,1.27,1.41,2.27a2.43,2.43,0,0,1-2.57,1.87A2.3,2.3,0,0,1,17.43,46.91Z"/><path class="cls-1" d="M23.25,44.77a4.08,4.08,0,0,1,4-3.66c1.88.08,3,1.65,2.71,3.72a4.06,4.06,0,0,1-4,3.61C24.1,48.35,23,46.82,23.25,44.77Zm5.61,0c.24-1.44-.55-2.56-1.77-2.58a2.91,2.91,0,0,0-2.69,2.55,2,2,0,0,0,1.76,2.55A2.89,2.89,0,0,0,28.86,44.8Z"/><path class="cls-1" d="M34.06,45.46l1.48,2.83H34.28l-1.34-2.74H32l-.53,2.74H30.36l1.37-7.08h2a1.93,1.93,0,0,1,2.06,2.29A2.39,2.39,0,0,1,34.06,45.46Zm-.47-3.15h-.93l-.45,2.32h.92a1.45,1.45,0,0,0,1.56-1.16A1,1,0,0,0,33.59,42.31Z"/><path class="cls-1" d="M37.67,41.21h1.14l-1.37,7.08H36.29Z"/><path class="cls-1" d="M43.28,47.22H40.19l-.64,1.07H38.22l4.53-7.23H43l1.72,7.23H43.51Zm-.21-1-.63-2.82-1.69,2.82Z"/><path class="cls-1" d="M53.48,42.31H51.71l-1.17,6H49.4l1.17-6H48.78l.22-1.1h4.7Z"/><path class="cls-1" d="M53.68,45.52l.84-4.31h1.14l-.83,4.31c-.2,1,.3,1.78,1.17,1.78s1.48-.61,1.71-1.78l.83-4.31h1.15l-.84,4.31c-.37,1.9-1.59,2.91-3,2.91S53.37,47.14,53.68,45.52Z"/><path class="cls-1" d="M63.31,45.46l1.48,2.83H63.54l-1.35-2.74h-.9l-.54,2.74H59.61L61,41.21H63a1.94,1.94,0,0,1,2.06,2.29A2.4,2.4,0,0,1,63.31,45.46Zm-.47-3.15h-.93l-.45,2.32h.93a1.45,1.45,0,0,0,1.55-1.16A1,1,0,0,0,62.84,42.31Z"/><path class="cls-1" d="M66.92,41.21h1.15l-1.38,7.08H65.55Z"/><path class="cls-1" d="M67.92,46.91l.89-.62a1.73,1.73,0,0,0,1.56,1,1.22,1.22,0,0,0,1.28-.82c.15-.74-.76-1.22-1.3-1.54a1.94,1.94,0,0,1-1.25-2.15,2.31,2.31,0,0,1,2.35-1.7,1.84,1.84,0,0,1,1.87,1.3l-.91.61a1.12,1.12,0,0,0-1.13-.82A1.08,1.08,0,0,0,70.2,43c-.12.62.55.91,1.17,1.26,1,.59,1.62,1.27,1.41,2.27a2.43,2.43,0,0,1-2.57,1.87A2.3,2.3,0,0,1,67.92,46.91Z"/><path class="cls-1" d="M78.79,42.31H77l-1.17,6H74.7l1.17-6H74.08l.22-1.1H79Z"/><path class="cls-1" d="M79.89,41.21H81l-1.38,7.08H78.51Z"/><path class="cls-1" d="M81.39,44.67A4.13,4.13,0,0,1,85.5,41.1a2.69,2.69,0,0,1,2.24,1.43l-.85.74a1.89,1.89,0,0,0-1.67-1.05,2.91,2.91,0,0,0-2.69,2.45c-.28,1.47.52,2.62,1.84,2.62a2.91,2.91,0,0,0,1.9-.85l.49,1a3.81,3.81,0,0,1-2.55,1C82.2,48.41,81,46.82,81.39,44.67Z"/><path class="cls-1" d="M92,47.22H88.91l-.64,1.07H86.94l4.53-7.23h.2l1.73,7.23H92.24Zm-.21-1-.63-2.82-1.68,2.82Z"/></g></g></svg>